<svg width="7" height="7" viewBox="0 0 7 7" fill="none" xmlns="http://www.w3.org/2000/svg">
<path d="M5.61445 1.44204C5.49228 1.3019 5.34722 1.19073 5.18757 1.11488C5.02791 1.03904 4.85679 1 4.68397 1C4.51115 1 4.34003 1.03904 4.18037 1.11488C4.02072 1.19073 3.87566 1.3019 3.75349 1.44204L3.49994 1.73274L3.24639 1.44204C2.99961 1.1591 2.6649 1.00015 2.3159 1.00015C1.9669 1.00015 1.6322 1.1591 1.38542 1.44204C1.13864 1.72497 1 2.10872 1 2.50885C1 2.90899 1.13864 3.29273 1.38542 3.57567L3.49994 6L5.61445 3.57567C5.73668 3.4356 5.83364 3.26928 5.8998 3.08624C5.96595 2.90319 6 2.70699 6 2.50885C6 2.31071 5.96595 2.11452 5.8998 1.93147C5.83364 1.74842 5.73668 1.58211 5.61445 1.44204Z" stroke="#919191" stroke-linecap="round" stroke-linejoin="round"/>
</svg>
